<?xml version="1.0" encoding="iso-8859-1"?>
<!-- Generator: Adobe Illustrator 19.0.0, SVG Export Plug-In . SVG Version: 6.00 Build 0)  -->
<svg version="1.1" id="Layer_1" xmlns="http://www.w3.org/2000/svg" xmlns:xlink="http://www.w3.org/1999/xlink" x="0px" y="0px"
	 viewBox="0 0 512 512" style="enable-background:new 0 0 512 512;" xml:space="preserve">
<g>
	<g>
		<path d="M490.667,0H21.333C9.552,0,0,9.551,0,21.333v469.333C0,502.449,9.552,512,21.333,512h469.333
			c11.782,0,21.333-9.551,21.333-21.333V21.333C512,9.551,502.45,0,490.667,0z M469.334,469.333L469.334,469.333H42.667V42.667
			h426.667V469.333z"/>
	</g>
</g>
<g>
	<g>
		<path d="M298.667,85.333H85.333C73.552,85.333,64,94.885,64,106.667v42.667c0,11.781,9.551,21.333,21.333,21.333
			s21.333-9.551,21.333-21.333V128h64v256h-21.333C137.552,384,128,393.551,128,405.333c0,11.782,9.551,21.333,21.333,21.333h85.333
			c11.782,0,21.333-9.551,21.333-21.333c0-11.782-9.551-21.333-21.333-21.333h-21.333V128h64v21.333
			c0,11.782,9.551,21.333,21.333,21.333c11.782,0,21.333-9.551,21.333-21.333v-42.667C320,94.884,310.449,85.333,298.667,85.333z"/>
	</g>
</g>
<g>
	<g>
		<path d="M426.667,213.334h-128c-11.782-0.001-21.334,9.551-21.334,21.333V256c0,11.782,9.551,21.333,21.333,21.333
			c11.782,0,21.333-9.551,21.333-21.333h21.333v128C329.552,384,320,393.551,320,405.333c0,11.782,9.551,21.333,21.333,21.333
			h21.291c0.014,0,0.028,0.002,0.042,0.002s0.028-0.002,0.042-0.002H384c11.782,0,21.333-9.551,21.333-21.333
			c0-11.782-9.551-21.333-21.333-21.333V256h21.333c0,11.782,9.551,21.333,21.333,21.333c11.782,0,21.334-9.551,21.334-21.333
			v-21.333C448,222.885,438.45,213.334,426.667,213.334z"/>
	</g>
</g>
<g>
</g>
<g>
</g>
<g>
</g>
<g>
</g>
<g>
</g>
<g>
</g>
<g>
</g>
<g>
</g>
<g>
</g>
<g>
</g>
<g>
</g>
<g>
</g>
<g>
</g>
<g>
</g>
<g>
</g>
</svg>
