<?xml version="1.0" encoding="iso-8859-1"?>
<!-- Generator: Adobe Illustrator 16.0.0, SVG Export Plug-In . SVG Version: 6.00 Build 0)  -->
<!DOCTYPE svg PUBLIC "-//W3C//DTD SVG 1.1//EN" "http://www.w3.org/Graphics/SVG/1.1/DTD/svg11.dtd">
<svg version="1.1" id="Capa_1" xmlns="http://www.w3.org/2000/svg" xmlns:xlink="http://www.w3.org/1999/xlink" x="0px" y="0px"
	 width="92.648px" height="92.648px" viewBox="0 0 92.648 92.648" style="enable-background:new 0 0 92.648 92.648;"
	 xml:space="preserve">
<g>
	<g>
		<path d="M0,12.702v67.244h92.648V12.702H0z M32.476,64.22l-0.561-3.054h-0.188c-1.992,2.431-5.107,3.736-8.723,3.736
			c-6.168,0-9.844-4.481-9.844-9.345c0-7.911,7.104-11.714,17.883-11.651V43.47c0-1.621-0.873-3.926-5.546-3.926
			c-3.116,0-6.418,1.059-8.412,2.305l-1.745-6.105c2.119-1.184,6.293-2.68,11.84-2.68c10.156,0,13.396,5.982,13.396,13.148v10.589
			c0,2.931,0.123,5.734,0.436,7.416h-8.536V64.22z M73.475,64.22l-1.902-7.238h-13.57l-1.955,7.238H46.006l12.169-37.456h12.959
			l12.32,37.456H73.475z"/>
		<polygon points="65.463,35.421 64.133,35.427 59.814,48.421 69.758,48.421 		"/>
		<path d="M22.508,54.626c0,2.428,1.62,3.613,3.738,3.613c2.368,0,4.299-1.559,4.922-3.49c0.125-0.498,0.188-1.061,0.188-1.621
			v-3.303C26.371,49.765,22.508,50.95,22.508,54.626z"/>
	</g>
</g>
<g>
</g>
<g>
</g>
<g>
</g>
<g>
</g>
<g>
</g>
<g>
</g>
<g>
</g>
<g>
</g>
<g>
</g>
<g>
</g>
<g>
</g>
<g>
</g>
<g>
</g>
<g>
</g>
<g>
</g>
</svg>
